<svg xmlns="http://www.w3.org/2000/svg" viewBox="0 0 37 24"><path d="M36.183 2.713h-3.268V.753A.768.768 0 0 0 32.137 0c-4.708 0-9.338.904-13.696 2.637C14.084.867 9.493 0 4.746 0a.768.768 0 0 0-.778.753v1.96H.778A.768.768 0 0 0 0 3.466v19.78c0 .415.35.754.778.754h35.444a.768.768 0 0 0 .778-.754V3.428a.83.83 0 0 0-.817-.716zM19.279 22.11V3.988a34.985 34.985 0 0 1 12.073-2.476v18.234c-4.204.075-8.216.9-12.073 2.364zM5.686 1.512c4.166.112 8.177.938 12.035 2.476V22.11c-3.858-1.463-7.908-2.289-12.074-2.364V1.512h.039zM1.558 4.157h2.54v16.336c0 .414.35.753.78.753 3.126 0 6.173.451 9.143 1.242H1.558V4.158zm33.884 0v18.331H22.979c2.969-.792 6.016-1.245 9.142-1.245.43 0 .781-.34.781-.754V4.157h2.54zM8.535 15.497l.115.002c2.144.22 4.287.624 6.392 1.211.39.11.623.514.507.918a.78.78 0 0 1-.741.514c-.078 0-.156 0-.234-.037-1.988-.587-4.053-.955-6.119-1.175-.39-.073-.701-.403-.663-.807a.803.803 0 0 1 .858-.624zm19.807.002c.428-.037.817.26.856.596.078.409-.233.781-.662.818a37.703 37.703 0 0 0-6.112 1.191c-.078.038-.155.038-.233.038a.793.793 0 0 1-.74-.521c-.117-.373.117-.782.506-.894a37.126 37.126 0 0 1 6.385-1.228zM8.535 11.906l.115.002c2.144.22 4.287.624 6.392 1.212.39.11.623.513.507.917a.78.78 0 0 1-.741.514c-.078 0-.156 0-.234-.037-1.988-.587-4.053-.954-6.119-1.174-.39-.074-.701-.404-.663-.808a.803.803 0 0 1 .858-.624zm19.807.002c.428-.036.817.257.856.624.078.404-.233.771-.662.808-2.063.22-4.126.624-6.112 1.174-.078.037-.155.037-.233.037a.792.792 0 0 1-.74-.514c-.117-.367.117-.77.506-.88a37.668 37.668 0 0 1 6.385-1.249zM8.535 8.316l.115.002c2.144.22 4.287.624 6.392 1.211.39.11.623.514.507.918a.78.78 0 0 1-.741.513c-.078 0-.156 0-.234-.036-1.988-.587-4.053-.955-6.119-1.175-.39-.073-.701-.404-.663-.807a.803.803 0 0 1 .858-.624zm19.807.01c.428-.074.817.223.856.594.078.408-.233.78-.662.816-2.063.223-4.126.631-6.112 1.187-.078.037-.155.037-.233.037a.793.793 0 0 1-.74-.519c-.117-.371.117-.78.506-.89a37.23 37.23 0 0 1 6.385-1.225zm-19.807-3.6.115.001c2.144.224 4.287.633 6.392 1.229.39.111.623.52.506.893-.116.298-.428.52-.74.52-.078 0-.156 0-.234-.036-1.988-.596-4.053-.968-6.119-1.191-.39-.038-.702-.41-.663-.782a.805.805 0 0 1 .858-.633zm19.807.001c.428-.037.817.26.856.596.078.41-.233.781-.662.819a39.408 39.408 0 0 0-6.112 1.19c-.078.038-.155.038-.233.038a.793.793 0 0 1-.74-.521c-.117-.372.117-.782.506-.894a37.88 37.88 0 0 1 6.385-1.228z" fill="#DE6518" fill-rule="evenodd"/></svg>