<svg aria-hidden="true" xmlns="http://www.w3.org/2000/svg" viewBox="0 0 31 31"><path d="M17.686 15.446 30.215 2.952a1.72 1.72 0 0 0 .507-1.225c0-.463-.18-.897-.507-1.224a1.743 1.743 0 0 0-2.45 0l-12.528 12.5L2.957.753C2.29.09 1.171.088.508.751.18 1.076 0 1.51 0 1.975c0 .461.18.896.507 1.223l12.28 12.248L.67 27.53a1.722 1.722 0 0 0-.504 1.223c0 .46.18.895.509 1.224.66.659 1.78.656 2.442-.002l12.121-12.088 12.37 12.338c.33.33.778.494 1.223.494.446 0 .889-.165 1.22-.494.325-.325.505-.757.507-1.22a1.724 1.724 0 0 0-.502-1.227L17.686 15.446Z" fill="#e00000" fill-rule="evenodd"/></svg>