<svg width="27" height="32" aria-hidden="true" viewBox="0 0 27 32" xmlns="http://www.w3.org/2000/svg"><path d="M18.266 9.96a.502.502 0 01-.053.635l-1.924 2.022-.026.028.368 2.781a.512.512 0 01-.73.53l-2.568-1.208-2.565 1.207a.508.508 0 01-.247.046.512.512 0 01-.485-.575l.357-2.749.005-.038-1.945-2.045a.502.502 0 01.021-.72.513.513 0 01.257-.13l2.79-.514 1.36-2.47a.518.518 0 01.906.001l1.346 2.436.019.033 2.783.514a.515.515 0 01.33.216zm-2.92 2.155l1.473-1.541-2.106-.387a.51.51 0 01-.356-.26L13.333 8.07 12.31 9.927a.51.51 0 01-.36.26l-2.101.387 1.467 1.541a.506.506 0 01.139.418l-.275 2.098 1.933-.906a.518.518 0 01.443 0l1.933.906-.276-2.099a.506.506 0 01.134-.417zm6.36 15.016l2.776.22-4.258-8.112-.068.265c-.176.687-.357 1.398-.996 1.758-.654.37-1.423.134-2.102-.075a2.9 2.9 0 00-1.08-.218l-.134-.001 4.4 8.463 1.461-2.3zm-7.472-6.317c.418-.441.813-.858 1.403-1.027.508-.145 1.274.067 1.642.169l.163.043.181.047c.435.115.753.189.888.124.175-.085.243-.368.392-.989l.023-.093c.14-.581.285-1.18.693-1.578.283-.276.842-.506 1.662-.685.291-.062.919-.243 1.054-.373.14-.136.047-.425-.138-1l-.023-.07c-.192-.6-.35-1.227-.215-1.755.132-.518.721-1.08 1.06-1.37.528-.449.753-.71.753-.872 0-.198-.214-.39-.64-.772l-.121-.108c-.453-.407-.88-.792-1.053-1.366-.142-.47.046-1.135.158-1.533.025-.09.047-.167.06-.225.02-.084.049-.184.078-.29.117-.401.185-.674.088-.8-.125-.163-.399-.23-1.06-.382l-.045-.01c-.595-.137-1.21-.278-1.618-.676-.283-.275-.52-.82-.703-1.617-.064-.283-.248-.896-.384-1.028-.137-.133-.432-.045-1.02.135l-.074.022c-.616.188-1.26.342-1.804.21-.533-.129-1.11-.703-1.407-1.033-.462-.514-.729-.732-.894-.732-.201 0-.398.208-.79.624l-.11.115c-.418.442-.813.858-1.404 1.028-.506.145-1.274-.068-1.643-.17a5.973 5.973 0 00-.162-.043 8.157 8.157 0 01-.182-.047c-.434-.113-.751-.189-.887-.123-.174.085-.242.367-.391.984l-.025.1c-.14.58-.284 1.18-.692 1.575-.284.277-.843.508-1.662.685-.291.063-.92.243-1.054.374-.139.136-.047.424.137.996l.024.075c.192.598.352 1.225.216 1.754-.133.519-.722 1.08-1.06 1.37-.528.449-.753.71-.753.872 0 .198.214.39.642.774l.118.106c.453.407.88.792 1.054 1.366.141.469-.046 1.135-.159 1.532-.025.09-.047.168-.06.226-.017.074-.04.162-.064.256-.109.414-.174.695-.11.821l.008.013c.126.164.381.235 1.024.382l.045.01c.595.136 1.21.278 1.618.675.284.277.52.82.703 1.617.204.898.346 1.002.392 1.036.133.097.469.048 1.127-.166a4.77 4.77 0 011.336-.278l.464.069c.533.13 1.11.704 1.407 1.034.462.513.73.732.893.732.2 0 .397-.208.788-.621l.113-.119zm-3.473.238l.062-.119h-.134a2.89 2.89 0 00-1.078.217c-.679.21-1.448.446-2.105.077-.667-.376-.87-1.134-1.011-1.816l-.045-.223-4.265 8.162 2.777-.219 1.461 2.3 4.338-8.38zm15.906 7.737l-4.238-.34-.048-.005L20.148 32l-5.186-9.964-.055-.106-.078.091c-.372.437-.92.71-1.49.748a2.161 2.161 0 01-1.501-.748l-.078-.091L6.518 32l-2.233-3.556L0 28.79l5.474-10.56.048-.093-.52-.115c-.678-.164-1.448-.35-1.812-.963-.378-.637-.137-1.383.075-2.038a2.7 2.7 0 00.298-1.018l.002-.027-.014-.023a2.782 2.782 0 00-.702-.757c-.531-.483-1.133-1.03-1.133-1.81 0-.781.602-1.328 1.129-1.807.27-.213.495-.47.671-.763l.011-.019v-.023a2.697 2.697 0 00-.222-1.052c-.215-.66-.458-1.408-.079-2.045.38-.642 1.181-.845 1.897-.985a2.877 2.877 0 001.006-.326l.02-.011.012-.02c.174-.305.288-.636.334-.976.139-.674.31-1.512.975-1.887.655-.37 1.424-.133 2.102.075.344.141.707.215 1.08.218h.022l.02-.01c.3-.172.563-.391.778-.65C11.968.587 12.53 0 13.333 0c.767 0 1.317.538 1.802 1.012l.054.05c.216.277.48.51.782.69l.02.012h.022a2.882 2.882 0 001.08-.218c.68-.208 1.449-.444 2.103-.075.63.355.82 1.104.99 1.765l.02.08c.048.347.16.678.336.982l.012.02.02.012c.312.17.65.28.997.324l.092.023c.679.164 1.449.35 1.813.964.379.636.136 1.385-.077 2.043a2.69 2.69 0 00-.224 1.054v.023l.012.019c.174.293.4.55.667.76.53.481 1.132 1.029 1.132 1.81 0 .78-.601 1.326-1.126 1.804-.283.21-.521.466-.709.763l-.012.02v.024c.003.364.08.718.223 1.053.215.66.457 1.407.079 2.044-.382.641-1.182.845-1.903.986l-.43.092 5.559 10.653z" fill="#020303" fill-rule="evenodd"/></svg>