<svg xmlns="http://www.w3.org/2000/svg" xmlns:xlink="http://www.w3.org/1999/xlink" viewBox="0 0 24 22"><defs><path d="M19 1.833c1.657 0 3 1.232 3 2.75v12.834c0 1.518-1.343 2.75-3 2.75H5c-1.657 0-3-1.232-3-2.75V4.583c0-1.518 1.343-2.75 3-2.75h14zm-3 8.63-8.587 7.87H19c.552 0 1-.41 1-.916v-3.288l-4-3.666zm3-6.796H5c-.552 0-1 .41-1 .916v12.834c0 .393.27.728.65.858l10.643-9.757a1.065 1.065 0 0 1 1.414 0L20 11.536V4.583c0-.506-.448-.916-1-.916zM8.5 5.5c1.38 0 2.5 1.026 2.5 2.292 0 1.265-1.12 2.291-2.5 2.291S6 9.057 6 7.792C6 6.526 7.12 5.5 8.5 5.5zm0 1.833c-.276 0-.5.206-.5.459s.224.458.5.458.5-.205.5-.458-.224-.459-.5-.459z" id="apict"/></defs><g fill="none" fill-rule="evenodd"><mask id="bpict" fill="#fff"><use xlink:href="#apict"/></mask><use fill="#000" fill-rule="nonzero" xlink:href="#apict"/><g mask="url(#bpict)" fill="#DE6518" fill-rule="nonzero"><path d="M0 0h24v22H0z"/></g></g></svg>