<svg xmlns="http://www.w3.org/2000/svg" xmlns:xlink="http://www.w3.org/1999/xlink" viewBox="0 0 24 24"><defs><path d="M16.8 0a.42.42 0 0 1 .296.11c.43.399.848.81 1.27 1.215l2.013 1.927 1.305 1.252c.08.075.13.161.133.27.003.098 0 .198 0 .3v15.67a.23.23 0 0 1-.04.135l-.046.046.034-.04a.252.252 0 0 0-.227-.389h-.277l.004.22v.027c0 .217.245.29.409.217l.056-.034a.241.241 0 0 1-.118.064l-.077.008H21.5c-.276.005-.554 0-.83 0H.279c-.15 0-.277-.116-.277-.252v-.035c-.005-.265 0-.532 0-.796V.252C.002.116.13 0 .28 0zM4.364.506H.562l.001.049L.56.82l-.003.265V20.49h.037c.092 0 .185.001.277.003l.277.003h20.113l-.005-.428c0-.216.002-.431.005-.647l.004-.647-.001-13.939-.208-.199-.288-.276-2.518-2.413L16.746.508l-.127.004-.216-.003-.04-.001v5.25c0 .109-.094.204-.215.23l-.063.006h-.02c-.462.014-.925 0-1.387 0H4.642c-.15 0-.278-.109-.278-.237L4.363.506zm.291 15.51c.508-.035 1.018 0 1.526 0h11.006c.358 0 .358.969 0 .969h-.022c-.508.034-1.018 0-1.526 0H4.632c-.358 0-.358-.97 0-.97zm0-5c.508-.035 1.018 0 1.526 0h11.006c.358 0 .358.969 0 .969h-.022c-.508.034-1.018 0-1.526 0H4.632c-.358 0-.358-.97 0-.97zM15.806.505H4.92v5.012l.19.003h10.696V.506z" id="asave"/></defs><g transform="translate(1.09 2)" fill="none" fill-rule="evenodd"><mask id="bsave" fill="#fff"><use xlink:href="#asave"/></mask><use fill="#FFF" fill-rule="nonzero" xlink:href="#asave"/><g mask="url(#bsave)" fill="#FFF" fill-rule="nonzero"><path d="M-1.09-2h24v24h-24z"/></g></g></svg>