<svg xmlns="http://www.w3.org/2000/svg" xmlns:xlink="http://www.w3.org/1999/xlink" viewBox="0 0 24 24"><defs><path d="M0 20.375C0 21.272.745 22 1.66 22h17.617c.915 0 1.66-.728 1.66-1.625V13.25c0-.276-.23-.5-.511-.5a.507.507 0 0 0-.511.5v7.125a.632.632 0 0 1-.638.625H1.66a.633.633 0 0 1-.639-.625V7.625c0-.344.287-.624.639-.624h3.446a.506.506 0 0 0 .511-.5c0-.277-.229-.501-.511-.501H1.66C.745 6 0 6.73 0 7.625v12.75zM18.639 9.793V8.001a.5.5 0 0 0-.15-.355.519.519 0 0 0-.345-.147c-4.053.03-6.964.052-9.547 2.66l-.615.62.182-.846C9.034 5.886 12.2 4 18.128 4a.506.506 0 0 0 .51-.5V1.708l4.13 4.042-4.13 4.043zm5.213-4.396L18.49.147a.517.517 0 0 0-.558-.109.5.5 0 0 0-.314.462v2.504l-.248.008C10.32 3.214 6.894 6.317 6.894 12.5c0 .222.153.42.37.481a.523.523 0 0 0 .574-.217c2.536-3.995 5.139-4.214 9.522-4.257l.258-.003V11a.513.513 0 0 0 .872.352l5.362-5.249a.495.495 0 0 0 0-.707z" id="ashare"/></defs><g transform="translate(0 1)" fill="none" fill-rule="evenodd"><mask id="bshare" fill="#fff"><use xlink:href="#ashare"/></mask><use fill="#020303" xlink:href="#ashare"/><g mask="url(#bshare)" fill="#FFF" fill-rule="nonzero"><path d="M-89-98h200v200H-89z"/></g></g></svg>