<svg version="1.0" xmlns="http://www.w3.org/2000/svg"
 width="27px" height="32px" aria-hidden="true" viewBox="0 0 1280.000000 1516.000000"
 preserveAspectRatio="xMidYMid meet">
<g transform="translate(0.000000,1516.000000) scale(0.100000,-0.100000)"
stroke="none">
<path d="M6010 15145 c-706 -89 -1353 -415 -1885 -949 -656 -660 -1068 -1562
-1177 -2581 -20 -187 -17 -773 5 -955 71 -585 218 -1077 466 -1555 155 -299
337 -563 572 -829 l122 -139 -29 -24 c-72 -58 -258 -187 -356 -247 -176 -108
-306 -172 -888 -441 -622 -287 -784 -368 -971 -488 -1055 -670 -1735 -1791
-1854 -3057 -14 -141 -15 -332 -12 -1310 l3 -1145 26 -110 c61 -257 166 -486
307 -670 69 -91 217 -240 306 -310 103 -80 195 -137 320 -195 120 -57 194 -82
340 -115 l110 -25 4913 0 4912 0 97 21 c716 155 1241 766 1303 1516 13 154 13
1997 0 2213 -34 572 -164 1074 -410 1575 -320 654 -789 1190 -1390 1592 -244
162 -336 209 -1138 579 -711 328 -804 379 -1059 586 -48 39 -90 72 -92 74 -1
1 45 57 104 122 624 700 990 1590 1065 2592 66 892 -158 1853 -606 2595 -274
453 -635 847 -1034 1130 -401 283 -836 460 -1335 540 -142 24 -581 29 -735 10z"/>
</g>
</svg>
