<svg width="30" height="30" xmlns="http://www.w3.org/2000/svg"><path d="M17 3.75a3 3 0 0 1 3 3v.999l4 .001a1 1 0 0 1 .993.883L25 8.75a1 1 0 0 1-1 1h-1v13a3 3 0 0 1-2.824 2.995L20 25.75H10a3 3 0 0 1-3-3v-13H6a1 1 0 0 1-.993-.883L5 8.75a1 1 0 0 1 1-1l4-.001V6.75a3 3 0 0 1 2.824-2.995L13 3.75zm4 6H9v13a1 1 0 0 0 .883.993l.117.007h10a1 1 0 0 0 1-1v-13zm-8 3a1 1 0 0 1 1 1v6a1 1 0 0 1-2 0v-6a1 1 0 0 1 1-1zm4 0a1 1 0 0 1 1 1v6a1 1 0 0 1-2 0v-6a1 1 0 0 1 1-1zm0-7h-4a1 1 0 0 0-1 1v.999h6V6.75a1 1 0 0 0-.883-.993L17 5.75z" fill="#333" fill-rule="evenodd"/></svg>