<svg xmlns="http://www.w3.org/2000/svg" xmlns:xlink="http://www.w3.org/1999/xlink" viewBox="0 0 24 25"><defs><path d="M9.518 21.967a5.576 5.576 0 0 1-7.885-7.885l4.15-4.15a5.576 5.576 0 0 1 7.884 0 .587.587 0 1 1-.83.83 4.38 4.38 0 0 0-6.224 0l-4.15 4.15a4.38 4.38 0 0 0 0 6.225 4.38 4.38 0 0 0 6.225 0l3.734-3.735a.587.587 0 1 1 .83.83l-3.734 3.735zm8.3-8.3a5.576 5.576 0 0 1-7.885 0 .587.587 0 1 1 .83-.83 4.38 4.38 0 0 0 6.224 0l4.15-4.15a4.38 4.38 0 0 0 0-6.224 4.38 4.38 0 0 0-6.225 0l-3.734 3.735a.587.587 0 1 1-.83-.83l3.734-3.735a5.576 5.576 0 0 1 7.885 7.885l-4.15 4.15z" id="alink"/></defs><g transform="translate(0 .9)" fill="none" fill-rule="evenodd"><mask id="blink" fill="#fff"><use xlink:href="#alink"/></mask><use fill="#000" fill-rule="nonzero" xlink:href="#alink"/><g mask="url(#blink)" fill="#DE6518" fill-rule="nonzero"><path d="M-3.6-4h31.2v31.2H-3.6z"/></g></g></svg>