<svg width="66" height="52" xmlns="http://www.w3.org/2000/svg"><path d="M2.87.862C1.305.862 0 2.15 0 3.696v45.333c0 1.545 1.305 2.833 2.87 2.833h60.26c1.565 0 2.87-1.288 2.87-2.833V3.696C66 2.15 64.695.862 63.13.862H2.87zm0 2.834h60.26v30.569l-12.083-8.368a1.449 1.449 0 0 0-.964-.243c-.27.025-.526.125-.74.288l-11.276 8.544-18.585-12.839a1.449 1.449 0 0 0-.964-.243c-.27.025-.526.125-.74.288L2.87 32.98V3.696zm34.434 10.647c-3.548 0-6.456 2.848-6.456 6.353 0 3.504 2.908 6.352 6.456 6.352 3.55 0 6.457-2.848 6.457-6.352 0-3.505-2.908-6.353-6.457-6.353zm0 2.81c1.998 0 3.587 1.57 3.587 3.543 0 1.972-1.589 3.541-3.587 3.541-1.998 0-3.564-1.569-3.564-3.541 0-1.973 1.566-3.542 3.564-3.542zm-18.63 7.416 16.994 11.732L18.92 48.985a1.43 1.43 0 0 0-.045.044H2.87V36.544L18.675 24.57zm31.566 4.25 12.89 8.899v11.31H23.584L50.24 28.82z" fill="#CCC" fill-rule="evenodd"/></svg>