<svg aria-hidden="true" xmlns="http://www.w3.org/2000/svg" viewBox="0 0 24 25"><path d="M14 .207c1.657 0 3 1.466 3 3.273v1.091h4c.513 0 .936.421.993.963l.007.128c0 .602-.448 1.09-1 1.09h-1v14.183c0 1.743-1.249 3.168-2.824 3.267l-.176.005H7c-1.657 0-3-1.465-3-3.272V6.753H3c-.513 0-.936-.421-.993-.963L2 5.662c0-.602.448-1.09 1-1.09h4V3.48C7 1.737 8.25.312 9.824.213L10 .207h4zm4 6.546H6v14.182c0 .56.386 1.02.883 1.083l.117.008h10c.552 0 1-.49 1-1.091V6.753zm-4-4.364h-4c-.552 0-1 .489-1 1.091v1.091h6v-1.09c0-.56-.386-1.022-.883-1.084L14 2.389z" fill="#fff" fill-rule="evenodd"/></svg>