<svg aria-hidden="true" width="50" height="59" viewBox="-1 0 63 68" xmlns="http://www.w3.org/2000/svg"><g fill="none" fill-rule="evenodd"><path d="M29.502 0c16.292 0 29.5 13.196 29.5 29.474 0 14.287-10.175 26.2-23.68 28.9L29.502 70l-5.819-11.626C10.177 55.674.002 43.761.002 29.474.002 13.196 13.209 0 29.502 0z" fill="#DE6518"/><path d="M45.719 29.113a5.766 5.766 0 00-2.53-.127c-1.19.305-1.659 1.576-2.163 2.385-.98 1.654-1.716 2.23-2.884 1.704-.41-.185-.98-1.292-1.673-3.167-.49-1.334-1.052-3.066-1.665-5.14-.937-3.144-4.664-9.1-7.93-13.715a14.198 14.198 0 00-1.63 5.573c-1.564 2.797-1.275 5.203-.23 8.057-.368 2.173-.634 4.352 1.492 7.93h-.036c-4.203-.142-12.976-5.68-17.251-7.468a7.387 7.387 0 003.77 4.373c1.32 3.55 6.092 7.873 9.704 8.164 1.391 2.677 4.693 5.417 8.326 3.798-6.64 2.968-8.737 4.778-9.444 6.269.152-.327 6.82 1.988 6.82 1.988s1.226-4.643 4.78-6c.961-.368 1.853-.737 2.674-1.107a24.442 24.442 0 003.266-1.76c2.646-1.732 4.059-3.72 4.268-6.39.21-2.669.93-3.727 2.71-5.367h-.374z" fill="#FFF" fill-rule="nonzero"/></g></svg>