<svg aria-hidden="true" xmlns="http://www.w3.org/2000/svg" xmlns:xlink="http://www.w3.org/1999/xlink" viewBox="0 0 22 24"><defs><path d="M14.668 23.5c0 .275-.208.5-.459.5H.46c-.252 0-.458-.225-.458-.5s.206-.5.458-.5h13.75c.251 0 .459.225.459.5m3.738-18.372-.03.126-.057.125-2.737 2.994-3.9-4.255.156-.267 2.695-2.843.157-.012.168.051a.782.782 0 0 1 .112.089l3.245 3.54c.033.035.055.057.074.082l.117.279v.091M14.89 9.024l-.153.269-9.14 9.968c-.223.238-.444.476-.662.718l-.083.093-3.937-.005-.004-4.301L10.996 4.774m7.901-.754L15.653.48a1.443 1.443 0 0 0-.398-.323A1.44 1.44 0 0 0 14.613 0c-.256 0-.5.076-.7.226-.179.136-.336.31-.502.495l-1.646 1.793c-.355.386-.71.772-1.063 1.163L.182 15.16a.674.674 0 0 0-.182.466l.006 4.94c0 .265.213.497.455.497.574 0 1.148 0 1.723.003l2.601.003c.284.002.442-.003.597-.158.032-.033.063-.069.095-.105L18.833 6.22a1.36 1.36 0 0 0 .084-.081 1.61 1.61 0 0 0-.02-2.119" id="a101"/></defs><g transform="translate(1.833)" fill="none" fill-rule="evenodd"><mask id="b000" fill="#fff"><use xlink:href="#a101"/></mask><use fill="#020303" xlink:href="#aa101"/><g mask="url(#b000)" fill="#FFF" fill-rule="nonzero"><path d="M-94.417-90H88.916v200H-94.417z"/></g></g></svg>