<svg aria-hidden="true" xmlns="http://www.w3.org/2000/svg" xmlns:xlink="http://www.w3.org/1999/xlink" viewBox="0 0 35 35"><defs><path d="m16.428 4.196-.026.103-.051.102-2.443 2.45-3.481-3.482.139-.218L12.971.825l.14-.01.15.042a.69.69 0 0 1 .1.072l2.897 2.897c.03.028.05.046.066.067l.104.228v.075m-3.137 3.187-.136.22-8.16 8.156c-.197.195-.394.39-.59.587l-.074.077-3.514-.005L.814 12.9l9-8.993m7.053-.617L13.97.393a1.275 1.275 0 0 0-.355-.265A1.38 1.38 0 0 0 13.043 0c-.229 0-.447.062-.625.185-.16.111-.3.254-.448.405l-1.469 1.467c-.317.316-.635.632-.949.951l-9.39 9.396a.527.527 0 0 0-.162.38l.005 4.043c0 .217.19.406.407.406.512 0 1.024 0 1.537.003l2.322.002c.254.002.394-.002.533-.129l.085-.086L16.809 5.09c.042-.035.059-.049.076-.066a1.236 1.236 0 0 0-.018-1.734" id="aedit"/></defs><g fill="none" fill-rule="evenodd"><circle fill="#fff" cx="17.5" cy="17.5" r="17.5"/><g transform="translate(9 9)"><mask id="bedit" fill="#fff"><use xlink:href="#aedit"/></mask><use fill="#ffffff" xlink:href="#aedit"/><g mask="url(#bedit)" fill="#FFF" fill-rule="nonzero"><path d="M-84.273-73.636H79.363V90H-84.273z"/></g></g></g></svg>