<svg aria-hidden="true" width="24" height="21" viewBox="0 0 24 21" xmlns="http://www.w3.org/2000/svg" xmlns:xlink="http://www.w3.org/1999/xlink">
    <defs>
        <path d="M20.727 0c1.291 0 2.412.799 2.944 1.954a1.2 1.2 0 0 1 .132.177c.176.287.231.63.177.95.013.127.02.255.02.386v13.866c0 1.91-1.47 3.467-3.273 3.467H3.273C1.47 20.8 0 19.243 0 17.333V3.467c0-.13.007-.26.02-.386-.054-.32 0-.663.177-.95.04-.065.084-.124.132-.178C.861.8 1.982 0 3.273 0h17.454zM22.4 4.77l-9.774 7.805c-.376.3-.876.3-1.252 0L1.6 4.77 1.6 17.943c0 .688.523 1.257 1.156 1.257h18.488c.633 0 1.156-.569 1.156-1.257V4.77zM21.244 1.6H2.756c-.326 0-.622.15-.833.39L12 10.037 22.077 1.99a1.111 1.111 0 0 0-.833-.39z" id="lhjadge17a"/>
    </defs>
    <use fill="#DE6518" xlink:href="#lhjadge17a" fill-rule="evenodd"/>
</svg>
