<svg aria-hidden="true" xmlns="http://www.w3.org/2000/svg" viewBox="0 0 19 24"><path d="M17.243 9.126c0 3.475-2.01 6.9-3.695 9.163-1.891 2.539-3.896 4.324-4.443 4.667-.603-.309-2.565-2.005-4.49-4.631-1.645-2.243-3.605-5.66-3.605-9.199 0-4.475 3.641-8.116 8.116-8.116 4.476 0 8.117 3.641 8.117 8.116M9.126 0C4.094 0 0 4.094 0 9.126c0 3.959 2.242 7.724 4.123 10.186C5.963 21.722 8.394 24 9.126 24c1.013 0 9.126-7.562 9.126-14.874C18.252 4.094 14.158 0 9.126 0m2.849 9.126a2.851 2.851 0 0 1-2.85 2.848A2.85 2.85 0 0 1 6.28 9.126a2.85 2.85 0 0 1 2.847-2.848 2.851 2.851 0 0 1 2.849 2.848m-2.85-3.857A3.861 3.861 0 0 0 5.27 9.126a3.862 3.862 0 0 0 3.857 3.858 3.863 3.863 0 0 0 3.859-3.858 3.862 3.862 0 0 0-3.86-3.857" fill="#999" fill-rule="evenodd"/></svg>