<svg aria-hidden="true" xmlns="http://www.w3.org/2000/svg" xmlns:xlink="http://www.w3.org/1999/xlink" viewBox="0 0 24 24"><defs><path d="M17.503 10.12 13.87 6.485c-.124-.114-.287-.119-.338-.114a.505.505 0 0 0-.353.16.52.52 0 0 0 .007.687l2.752 2.753H8.857c-.278 0-.513.224-.513.49v6.678c0 .28.22.49.513.49.275 0 .49-.216.49-.49v-6.166h6.558l-2.728 2.762c-.217.203-.237.524-.045.728a.515.515 0 0 0 .355.16h.011a.528.528 0 0 0 .38-.172l3.624-3.625a.5.5 0 0 0 .154-.354.5.5 0 0 0-.153-.354M12 0c-.631 0-1.262.241-1.744.722L.722 10.256a2.467 2.467 0 0 0 0 3.488l9.534 9.533A2.459 2.459 0 0 0 12 24c.631 0 1.263-.241 1.744-.723l9.533-9.533a2.465 2.465 0 0 0 0-3.488L13.744.722A2.46 2.46 0 0 0 12 0m0 1c.392 0 .76.152 1.037.43l9.533 9.533c.278.277.43.645.43 1.037 0 .392-.152.76-.43 1.037l-9.533 9.533c-.277.278-.645.43-1.037.43-.392 0-.76-.152-1.037-.43L1.43 13.037A1.453 1.453 0 0 1 1 12c0-.392.152-.76.43-1.037l9.533-9.533C11.24 1.152 11.608 1 12 1" id="aitin"/></defs><use fill="#fff" xlink:href="#aitin" fill-rule="evenodd"/></svg>