<svg aria-hidden="true" xmlns="http://www.w3.org/2000/svg" viewBox="0 0 22 21"><path d="m21.805 10.99-3.666 3.807a.648.648 0 0 1-.943 0 .71.71 0 0 1 0-.979l2.529-2.625H8.667A.68.68 0 0 1 8 10.5a.68.68 0 0 1 .667-.692h11.058l-2.529-2.626a.71.71 0 0 1 0-.979.65.65 0 0 1 .943 0l3.666 3.807a.715.715 0 0 1 0 .98zm-6.5 1.61a.698.698 0 0 0-.697.7v6.3H1.392V1.4h13.216v6.3c0 .386.311.7.696.7A.698.698 0 0 0 16 7.7v-7c0-.386-.312-.7-.696-.7H.696A.698.698 0 0 0 0 .7v19.6c0 .386.312.7.696.7h14.608a.698.698 0 0 0 .696-.7l-.001-7c0-.387-.311-.7-.695-.7z" fill="#fff" fill-rule="evenodd"/></svg>