<svg aria-hidden="true" xmlns="http://www.w3.org/2000/svg" viewBox="0 0 32 24"><path d="M31.751 10.983 21.148.28c-.17-.181-.368-.274-.576-.277C20.555 0 20.54 0 20.526 0c-.21 0-.407.092-.59.276a.79.79 0 0 0-.238.595c0 .249.08.45.256.638l9.127 9.186H.857a.827.827 0 0 0-.617.269.784.784 0 0 0-.24.597c0 .245.08.448.261.643.157.146.356.22.596.22h28.222l-9.143 9.23a.788.788 0 0 0-.238.595c0 .249.08.451.26.645a.84.84 0 0 0 .577.217c.222 0 .45-.08.612-.24l10.585-10.69a.84.84 0 0 0 .268-.62.757.757 0 0 0-.249-.578" fill="#1D1D1B" fill-rule="evenodd"/></svg>