<svg aria-hidden="true" xmlns="http://www.w3.org/2000/svg" viewBox="0 0 25 25"><path d="M17.938 23.707c0 .275-.244.5-.539.5H1.23c-.296 0-.539-.225-.539-.5s.243-.5.54-.5h16.168c.295 0 .539.225.539.5m4.396-18.372-.035.126-.068.125-3.217 2.994-4.587-4.255.183-.267 3.17-2.843.184-.012.198.051a.908.908 0 0 1 .132.09l3.816 3.54c.038.034.064.056.087.081l.137.28v.09M18.2 9.231l-.18.27-10.749 9.967c-.26.238-.52.476-.777.718l-.098.093-4.63-.005-.004-4.3L13.62 4.98m9.29-.754L19.098.687a1.679 1.679 0 0 0-.468-.323 1.938 1.938 0 0 0-.756-.157c-.3 0-.588.076-.822.226-.21.136-.396.31-.59.495l-1.936 1.793c-.418.386-.836.772-1.25 1.163L.904 15.367a.622.622 0 0 0-.214.466l.007 4.94c0 .265.25.497.535.497.675 0 1.35 0 2.026.003l3.059.003c.334.002.52-.003.702-.158.037-.033.074-.069.112-.105L22.836 6.427c.055-.043.077-.06.1-.08.616-.598.606-1.53-.024-2.12" fill="#FFF" fill-rule="evenodd"/></svg>