<svg aria-hidden="true" xmlns="http://www.w3.org/2000/svg" viewBox="0 0 44 44"><g fill="none" fill-rule="evenodd"><circle fill="#FFF" cx="22" cy="22" r="22"/><path d="M24.07 14.5c.25 0 .5.125.667.333l1.415 1.917h1.665v-.375c0-.23.083-.438.25-.583a.755.755 0 0 1 .582-.25h1.457c.23 0 .437.083.583.25.166.146.25.354.25.583v.417c.603.104 1.04.604 1.061 1.229v10.625c0 .354-.146.666-.375.896-.25.25-.562.375-.895.375H13.04a.976.976 0 0 1-.728-.313.978.978 0 0 1-.312-.729V18.042a1.243 1.243 0 0 1 1.249-1.25h4.578l1.395-1.938a.839.839 0 0 1 .686-.354zm0 1.333h-4.162l-1.394 1.938a.839.839 0 0 1-.687.354H13.75a.41.41 0 0 0-.292.125c-.083.083-.125.083-.125.292v9.833c0 .063.021.104.063.146a.189.189 0 0 0 .146.062h16.69a.41.41 0 0 0 .29-.125.412.412 0 0 0 .126-.291V18.52a.418.418 0 0 0-.417-.417l-4.078-.02c-.25 0-.5-.126-.666-.334l-1.415-1.917zM22 19.5c1.92 0 3.5 1.562 3.5 3.5s-1.58 3.5-3.5 3.5-3.5-1.562-3.5-3.5 1.58-3.5 3.5-3.5zm0 1a2.5 2.5 0 1 0 .001 5.001A2.5 2.5 0 0 0 22 20.5zm-5.028-1.417c.245 0 .445.188.445.417 0 .23-.2.417-.445.417h-2.444c-.245 0-.445-.188-.445-.417 0-.23.2-.417.445-.417zm13.134-2.708H28.65v.396h1.457v-.396z" fill="#DE6518"/></g></svg>