<svg aria-hidden="true" xmlns="http://www.w3.org/2000/svg" xmlns:xlink="http://www.w3.org/1999/xlink" width="60" height="60"><defs><linearGradient id="c"><stop offset="0" stop-color="#70efff"/><stop offset="1" stop-color="#5770ff"/></linearGradient><linearGradient id="b"><stop offset="0" stop-color="#0255fb"/><stop offset="1" stop-color="#13ddf5"/></linearGradient><linearGradient id="a"><stop offset="0" stop-color="#0081f8"/><stop offset="1" stop-color="#01ddff"/></linearGradient><linearGradient xlink:href="#c" id="d" gradientUnits="userSpaceOnUse" gradientTransform="matrix(.15 0 0 .15 .8500239 961.21217)" x1="305.20093" y1="598.59198" x2="305.785" y2="8.2437592"/></defs><g color="#000" transform="scale(0.1)"><path style="marker:none" d="M21.652659 961.36222h48.694734c11.441552 0 20.652633 9.21108 20.652633 20.65264v48.69474c0 11.4416-9.211081 20.6526-20.652633 20.6526H21.652659c-11.441563 0-20.6526336-9.211-20.6526336-20.6526v-48.69474c0-11.44156 9.2110706-20.65264 20.6526336-20.65264z" fill="url(#d)" overflow="visible" transform="matrix(6.66667 0 0 6.66667 -5.6668106 -6408.08128)"/><path transform="matrix(6.66667 0 0 6.66667 -5.6668106 -3405.6667767)" d="M20.71875 536.59375c-.474202 0-.920938.0818-1.34375.25l8.46875 8.71875 8.5625 8.875.15625.1875.25.25.25.25.5.53125 7.34375 7.53125c.122269.076.476602.4042.753434.54258.356583.17824.743089.34255 1.141484.3568.42992.0154.869334-.10782 1.256181-.29601.289732-.14096.418572-.34294.755151-.60337l8.5-8.78125 8.59375-8.84375 8.28125-8.53125c-.531643-.28806-1.120466-.4375-1.75-.4375zm-2.59375 1.0625c-.903115.85572-1.46875 2.14217-1.46875 3.59375v28.625c0 1.17535.377499 2.24307 1 3.0625l1.1875-1.125 8.84375-8.59375 7.84375-7.59375-.15625-.1875-8.59375-8.84375-8.59375-8.875zm57.1875.28125-8.375 8.65625-8.5625 8.84375-.15625.15625L66.375 563.5l8.84375 8.59375.53125.5c.476164-.76402.75-1.70518.75-2.71875V541.25c0-1.29428-.448516-2.46795-1.1875-3.3125zm-38.78125 18.71875-7.8125 7.59375-8.875 8.59375-1.125 1.09375c.593096.38196 1.268042.625 2 .625H72.4375c.879957 0 1.678116-.33853 2.34375-.875l-.5625-.5625-8.875-8.59375-8.15625-7.875-7.34375 7.5625c-.397465.2635-.663064.55576-1.051168.73523-.624615.28885-1.309163.53321-1.997252.52267-.689922-.0106-1.366428-.28061-1.985577-.58517-.310792-.15288-.476438-.30481-.841003-.61023z" style="marker:none" fill="#fff" overflow="visible"/></g></svg>