<svg width="322" height="120" xmlns="http://www.w3.org/2000/svg"><defs><linearGradient x1="32.8916471%" y1="96.9892653%" x2="67.0999665%" y2="3.0023482%" id="a"><stop stop-color="#0D8EB9" offset="0%"/><stop stop-color="#277EAE" offset="2%"/><stop stop-color="#53629C" offset="5%"/><stop stop-color="#734E8F" offset="8%"/><stop stop-color="#874187" offset="11%"/><stop stop-color="#8E3D84" offset="13%"/><stop stop-color="#983570" offset="17%"/><stop stop-color="#BE1823" offset="34%"/><stop stop-color="#C92622" offset="40%"/><stop stop-color="#E5491E" offset="52%"/><stop stop-color="#E94F1D" offset="54%"/><stop stop-color="#FDEB1A" offset="100%"/></linearGradient></defs><g fill="none" fill-rule="evenodd"><g fill="#333"><path d="M154.2929 48.2254c.197.912.523 1.568.977 1.979.454.41 1.106.615 1.955.615.741 0 1.348-.198 1.818-.582.468-.385.703-.895.703-1.532 0-.608-.225-1.07-.681-1.389-.197-.139-.418-.257-.659-.359-.241-.11-.509-.205-.795-.3l-.725-.228-.73-.205-.727-.223c-2.619-.821-3.931-2.419-3.931-4.797 0-.821.138-1.561.411-2.224.271-.671.662-1.239 1.169-1.708.508-.469 1.117-.828 1.829-1.077.711-.253 1.508-.377 2.386-.377 1.045 0 2 .183 2.863.538.864.363 1.537.858 2.021 1.495.304.389.515.788.637 1.217.123.428.197.964.23 1.616l-3.318.432c-.046-.399-.109-.7-.183-.912-.077-.213-.181-.4-.317-.568-.199-.227-.467-.414-.809-.554-.34-.142-.707-.219-1.101-.219-.635 0-1.166.179-1.592.534-.421.356-.636.799-.636 1.327 0 .499.172.909.513 1.224.34.319.904.59 1.692.821.59.161 1.105.322 1.546.461.438.147.821.279 1.145.4.329.121.608.245.842.373.235.129.458.268.669.422.608.406 1.065.949 1.377 1.619.31.671.466 1.459.466 2.349 0 .861-.148 1.638-.444 2.323-.295.693-.717 1.272-1.261 1.752-.544.476-1.211.839-2.001 1.099-.785.257-1.673.385-2.657.385-3.619 0-5.703-1.726-6.247-5.181l3.565-.546ZM169.54 36.203h10.566v3.137h-6.431c-.137 0-.238-.004-.306-.008-.067-.007-.164-.025-.284-.059.03.118.049.217.056.283.008.065.012.168.012.308v2.704c0 .139-.004.238-.012.307-.007.066-.026.165-.056.286.12-.033.217-.051.284-.059.068-.01.169-.01.306-.01h5.226v3.132h-5.226c-.137 0-.238-.003-.306-.011-.067-.003-.164-.025-.284-.054.03.121.049.216.056.285.008.07.012.169.012.308v3.181c0 .135-.004.238-.012.304-.007.07-.026.165-.056.286.12-.033.217-.051.284-.059.068-.007.169-.011.306-.011h6.658v3.133H169.54V36.203ZM191.0576 39.0462c-.135 0-.234-.003-.294-.015-.06-.007-.151-.022-.274-.051.029.121.047.205.047.271V43.2452c0 .066-.018.154-.047.275.123-.026.214-.048.274-.055.06-.003.159-.015.294-.015h1.41c.758 0 1.343-.032 1.759-.11.418-.076.778-.197 1.079-.362.26-.169.468-.411.626-.729.159-.319.24-.671.24-1.067 0-.363-.076-.696-.227-1-.152-.304-.356-.539-.615-.703-.274-.169-.575-.283-.908-.345-.332-.059-.827-.088-1.477-.088h-1.887Zm-4.136-2.843h7.195c.729 0 1.434.088 2.117.267.682.172 1.266.41 1.752.711.606.396 1.077.946 1.412 1.66.332.714.501 1.517.501 2.407 0 1.136-.277 2.092-.824 2.862-.548.777-1.349 1.33-2.401 1.66.093.128.156.22.194.297.038.077.095.19.17.344l3.272 7.175h-3.91l-3.294-7.245h-2.114c-.137 0-.236-.003-.296-.014-.062-.004-.152-.026-.275-.055.033.121.05.212.06.282.005.07.009.172.009.308v6.724h-3.568v-17.383ZM207.7138 36.203l2.112 7.706c.153.59.284 1.088.4 1.502.115.411.213.795.295 1.158.084.363.162.747.238 1.147.075.403.166.89.274 1.462h.137c.088-.572.171-1.059.25-1.462.073-.4.151-.788.225-1.161.078-.367.164-.763.261-1.173.098-.407.226-.905.377-1.495l1.953-7.684h3.431l-4.977 17.383h-3.384l-5.091-17.383h3.499ZM222.984 53.586h3.565V36.203h-3.565zM246.8652 47.5692c-.09.967-.323 1.851-.693 2.635-.371.787-.863 1.462-1.48 2.022-.612.557-1.334.99-2.168 1.294-.833.304-1.742.454-2.726.454-1.121 0-2.129-.205-3.02-.623-.893-.421-1.642-1.018-2.254-1.795-.609-.78-1.074-1.737-1.399-2.865-.325-1.129-.486-2.412-.486-3.848 0-1.4.175-2.646.519-3.763.349-1.114.841-2.059 1.478-2.84.642-.777 1.422-1.378 2.345-1.796.923-.417 1.96-.626 3.111-.626.924 0 1.781.15 2.569.443.786.293 1.469.704 2.046 1.224.575.531 1.034 1.162 1.385 1.902.347.74.545 1.568.589 2.477l-3.543.568c-.108-.652-.22-1.158-.342-1.521-.12-.363-.293-.7-.522-1.004-.227-.3-.554-.549-.976-.744-.426-.198-.866-.3-1.319-.3-1.135 0-2.024.517-2.658 1.546-.636 1.034-.953 2.488-.953 4.353 0 .711.058 1.433.18 2.173.123.737.29 1.371.5 1.902.256.649.633 1.147 1.125 1.491.492.337 1.072.51 1.738.51.956 0 1.7-.293 2.236-.873.54-.582.913-1.487 1.128-2.718l3.59.322ZM252.4326 36.203h10.565v3.137h-6.43c-.137 0-.238-.004-.306-.008-.068-.007-.167-.025-.284-.059.029.118.05.217.055.283.009.065.014.168.014.308v2.704c0 .139-.005.238-.014.307-.005.066-.026.165-.055.286.117-.033.216-.051.284-.059.068-.01.169-.01.306-.01h5.224v3.132h-5.224c-.137 0-.238-.003-.306-.011-.068-.003-.167-.025-.284-.054.029.121.05.216.055.285.009.07.014.169.014.308v3.181c0 .135-.005.238-.014.304-.005.07-.026.165-.055.286.117-.033.216-.051.284-.059.068-.007.169-.011.306-.011h6.656v3.133h-10.791V36.203ZM272.4961 48.2254c.195.912.523 1.568.976 1.979.455.41 1.106.615 1.956.615.741 0 1.348-.198 1.817-.582.468-.385.702-.895.702-1.532 0-.608-.224-1.07-.68-1.389-.198-.139-.417-.257-.658-.359-.242-.11-.509-.205-.795-.3l-.727-.228-.73-.205-.726-.223c-2.62-.821-3.93-2.419-3.93-4.797 0-.821.137-1.561.408-2.224.273-.671.664-1.239 1.17-1.708.51-.469 1.119-.828 1.828-1.077.713-.253 1.51-.377 2.388-.377 1.046 0 2 .183 2.864.538.864.363 1.537.858 2.021 1.495.304.389.513.788.637 1.217.121.428.196.964.226 1.616l-3.317.432c-.044-.399-.106-.7-.182-.912-.075-.213-.181-.4-.317-.568-.197-.227-.465-.414-.808-.554-.341-.142-.707-.219-1.102-.219-.635 0-1.165.179-1.59.534-.423.356-.636.799-.636 1.327 0 .499.172.909.512 1.224.339.319.904.59 1.692.821.59.161 1.105.322 1.545.461.44.147.822.279 1.147.4.329.121.607.245.842.373.233.129.457.268.668.422.608.406 1.065.949 1.378 1.619.309.671.465 1.459.465 2.349 0 .861-.148 1.638-.445 2.323-.294.693-.715 1.272-1.26 1.752-.546.476-1.212.839-2 1.099-.785.257-1.674.385-2.657.385-3.62 0-5.704-1.726-6.247-5.181l3.565-.546Z"/><g><path d="M152.6933 67.203h10.09v3.206h-5.954c-.136 0-.235-.004-.294-.007-.06-.011-.152-.033-.273-.062.03.12.046.216.046.274v3.522c0 .058-.016.153-.046.275.121-.034.213-.052.273-.063.059 0 .158-.007.294-.007h4.431v3.041h-4.5c-.136 0-.234 0-.293-.007-.062-.007-.152-.026-.274-.059.032.125.049.217.057.286.006.07.012.172.012.308v6.676h-3.569V67.203ZM181.915 78.683c0 .967-.154 1.843-.466 2.624-.314.776-.758 1.443-1.345 1.985-.578.543-1.282.968-2.106 1.261-.828.297-1.755.447-2.785.447-1.232 0-2.334-.223-3.319-.671-.983-.45-1.742-1.073-2.273-1.879-.3-.469-.542-1.03-.714-1.689-.176-.66-.261-1.352-.261-2.078v-11.48h3.57V78.5c0 2.257 1.018 3.386 3.063 3.386.956 0 1.703-.305 2.25-.913.549-.601.817-1.425.817-2.473V67.203h3.569v11.48ZM188.5761 67.203h4.885l3.247 6.706c.289.589.523 1.091.718 1.498.19.414.362.806.52 1.18.161.385.322.773.487 1.173.168.402.367.897.59 1.487l.117-.022c-.047-.619-.081-1.15-.117-1.59-.029-.44-.051-.865-.062-1.271-.019-.407-.03-.843-.036-1.294-.008-.454-.012-1.019-.012-1.686v-6.181h3.111v17.383h-3.499l-4.613-9.546c-.282-.589-.528-1.084-.726-1.494-.198-.411-.374-.803-.535-1.18-.157-.381-.319-.766-.487-1.169-.165-.403-.363-.898-.59-1.492l-.114.044c.045.62.081 1.147.114 1.583.029.429.051.85.065 1.257.015.41.03.843.034 1.301.01.451.014 1.011.014 1.678v9.018h-3.111V67.203ZM214.4531 62.9998l3.023.026-2.66 3.499-2.29-.022 1.927-3.503Zm-5.793 4.203h10.564v3.137h-6.427c-.135 0-.239-.004-.308-.007-.065-.008-.165-.026-.285-.06.029.118.051.217.059.283.002.066.01.169.01.308v2.704c0 .139-.008.238-.01.307-.008.066-.03.166-.059.287.12-.034.22-.052.285-.059.069-.011.173-.011.308-.011h5.225v3.133h-5.225c-.135 0-.239-.004-.308-.012-.065-.003-.165-.025-.285-.054.029.121.051.216.059.285.002.07.01.169.01.308v3.181c0 .135-.008.238-.01.304-.008.07-.03.165-.059.286.12-.033.22-.051.285-.059.069-.007.173-.011.308-.011h6.658v3.133h-10.795v-17.383ZM230.1767 70.0462c-.136 0-.234-.003-.297-.015-.058-.007-.154-.022-.271-.051.029.121.047.205.047.271V74.2452c0 .066-.018.154-.047.275.117-.026.213-.048.271-.055.063-.003.161-.015.297-.015h1.411c.754 0 1.341-.032 1.759-.11.417-.076.776-.197 1.081-.362.252-.169.461-.411.619-.729.164-.319.241-.671.241-1.067 0-.363-.073-.696-.226-1-.151-.304-.356-.539-.613-.703-.274-.169-.575-.283-.909-.345-.333-.059-.824-.088-1.479-.088h-1.884Zm-4.137-2.843h7.193c.729 0 1.436.088 2.118.267.685.172 1.264.41 1.752.711.608.396 1.077.946 1.414 1.66.33.714.498 1.517.498 2.407 0 1.136-.275 2.092-.82 2.862-.554.777-1.353 1.33-2.405 1.66.092.128.155.22.195.297.04.077.091.19.172.344l3.272 7.175h-3.909l-3.295-7.245h-2.114c-.139 0-.239-.003-.296-.014-.06-.004-.155-.026-.272-.055.03.121.044.212.051.282.012.07.015.172.015.308v6.724h-3.569v-17.383ZM250.9424 77.5213c.333 0 .582.004.751.011.165.011.399.03.699.059-.044-.151-.084-.275-.124-.378-.037-.095-.073-.197-.102-.293-.03-.099-.059-.201-.088-.304-.03-.11-.067-.245-.117-.41l-.569-2.181c-.117-.458-.216-.838-.293-1.15-.073-.312-.142-.612-.205-.898-.062-.286-.113-.582-.165-.883-.058-.308-.121-.675-.198-1.114h-.113c-.059.439-.114.813-.158 1.121-.047.316-.102.608-.161.891-.062.278-.125.571-.194.883-.067.312-.15.692-.261 1.15l-.546 2.246c-.073.316-.138.55-.179.693-.047.147-.114.345-.206.605.287-.015.513-.026.671-.037.158-.007.389-.011.693-.011h.865Zm-2.639-10.318h4.522l4.91 17.382h-3.547l-1.202-4.587h-4.771l-1.087 4.587h-3.346l4.521-17.382ZM263.488 84.586h3.565V67.203h-3.565zM277.8672 70.0462c-.136 0-.234-.003-.294-.015-.059-.007-.153-.022-.274-.051.029.121.047.205.047.271V74.2452c0 .066-.018.154-.047.275.121-.026.215-.048.274-.055.06-.003.158-.015.294-.015h1.41c.755 0 1.342-.032 1.759-.11.418-.076.773-.197 1.077-.362.257-.169.47-.411.623-.729.165-.319.242-.671.242-1.067 0-.363-.073-.696-.227-1-.151-.304-.352-.539-.612-.703-.271-.169-.575-.283-.909-.345-.333-.059-.824-.088-1.476-.088h-1.887Zm-4.138-2.843h7.194c.732 0 1.436.088 2.118.267.684.172 1.263.41 1.751.711.608.396 1.077.946 1.415 1.66.333.714.498 1.517.498 2.407 0 1.136-.275 2.092-.821 2.862-.553.777-1.348 1.33-2.404 1.66.092.128.155.22.195.297.036.077.094.19.171.344l3.273 7.175h-3.91l-3.294-7.245h-2.118c-.135 0-.235-.003-.293-.014-.059-.004-.154-.026-.275-.055.03.121.047.212.055.282.007.07.015.172.015.308v6.724h-3.57v-17.383ZM292.3886 67.203h10.563v3.137h-6.426c-.136 0-.242-.004-.308-.008-.07-.007-.162-.025-.286-.059.029.118.051.217.059.283.003.065.006.168.006.308v2.704c0 .139-.003.238-.006.307-.008.066-.03.165-.059.286.124-.033.216-.051.286-.059.066-.01.172-.01.308-.01h5.224v3.132h-5.224c-.136 0-.242-.003-.308-.011-.07-.003-.162-.025-.286-.054.029.121.051.216.059.285.003.07.006.169.006.308v3.181c0 .135-.003.238-.006.304-.008.07-.03.165-.059.286.124-.033.216-.051.286-.059.066-.007.172-.011.308-.011h6.657v3.133h-10.794V67.203ZM312.4531 79.2254c.198.912.524 1.568.976 1.979.458.41 1.109.615 1.956.615.74 0 1.348-.198 1.817-.582.47-.385.704-.895.704-1.532 0-.608-.224-1.07-.682-1.389-.194-.139-.414-.257-.66-.359-.241-.11-.508-.205-.795-.3l-.725-.228-.726-.205-.728-.223c-2.624-.821-3.929-2.419-3.929-4.797 0-.821.132-1.561.407-2.224.272-.671.663-1.239 1.169-1.708.509-.469 1.121-.828 1.828-1.077.715-.253 1.51-.377 2.386-.377 1.048 0 1.997.183 2.861.538.87.363 1.539.858 2.027 1.495.304.389.513.788.637 1.217.122.428.199.964.228 1.616l-3.32.432c-.044-.399-.103-.7-.18-.912-.077-.213-.187-.4-.322-.568-.198-.227-.465-.414-.803-.554-.341-.142-.711-.219-1.103-.219-.633 0-1.165.179-1.589.534-.429.356-.638.799-.638 1.327 0 .499.172.909.509 1.224.341.319.905.59 1.693.821.594.161 1.106.322 1.546.461.44.147.821.279 1.15.4.327.121.602.245.836.373.239.129.458.268.674.422.605.406 1.063.949 1.374 1.619.308.671.466 1.459.466 2.349 0 .861-.15 1.638-.443 2.323-.297.693-.715 1.272-1.261 1.752-.546.476-1.213.839-2.001 1.099-.783.257-1.674.385-2.656.385-3.62 0-5.705-1.726-6.247-5.181l3.564-.546Z"/></g></g><g fill-rule="nonzero"><circle fill="url(#a)" cx="60" cy="60" r="60"/><path d="M34.2996119 86.3867176h-3.1693463c-.440187 0-.9781934.3297091-.9781934.6993829v9.2918014c0 .329709-.1956386.489568-.6358256.489568H26.659922c-.4401869 0-.6358256-.159859-.6358256-.489568V72.7787247c0-.3297091.1956387-.4895681.6358256-.4895681h9.6547682c4.979004 0 9.9482261 1.8383779 9.9482261 6.8339701.1076013 4.1163679-3.8345178 7.2635909-11.9633044 7.2635909Zm-.146729-12.4490156h-2.7095955c-.6358256 0-1.2325236.4096386-1.2325236.9391713v9.2218631c0 .3696738.4890967.7293565.9781934.7293565h2.5139568c4.5779448 0 8.3244252-1.1090215 8.3244252-5.8148693-.0489096-3.4769321-2.3085362-5.0755216-7.8744563-5.0755216ZM70.0563577 74.9767852s-6.3582595-.6194534-8.2843772-.6194534h-4.1421886c-.6121358-.0652219-1.1671542.3507816-1.2530121.9391713l-.0517773 7.4134587c.0078636.0849433.050575.1633351.1186379.2177462.0680629.054411.1558357.0803314.2438036.0719981l9.4338345-.2098148c.2588868 0 .5177736.0899206.5177736.2897443v1.9282986c0 .2098148-.2588868.2897443-.5177736.2897443l-9.4338345-.1998237c-.0879679-.0083333-.1757407.0175871-.2438036.0719982-.0680629.0544111-.1107743.1328029-.1186379.2177462l.1035547 10.9903027c0 .329709-.2071094.489568-.6731056.489568h-3.0237977c-.4659962 0-.6834611-.159859-.6834611-.489568V72.7787247c0-.3297091.2071094-.4895681.6834611-.4895681h17.3247038c.4142188 0 .7870158.0799295.7870158.4096386v1.9183074c-.0207109.3197179-.3935079.3996473-.7870158.3596826ZM94.6972733 97.8886657c-.5174382 0-1.92487-1.1494925-1.92487-1.1494925-.2561535-.1479907-.5717476-.1479907-.8279011 0-2.4495814 1.0004948-5.0643601 1.534342-7.7098288 1.5740798-6.6232086 0-13.3912999-3.4381218-13.3912999-13.2450534 0-7.9843129 6.2092581-12.779043 13.2878123-12.779043h8.4342422c.4139506 0 .6830184.0828463.6209258.4245874l-.3104629 2.4128987c-.0517438.341741-.3622067.5074336-.786506.4245873-2.5921164-.8256345-5.3002808-1.2277639-8.0202917-1.1909157-5.3192644 0-8.3411033 3.7384396-8.3411033 10.6975295 0 8.2846308 4.5327584 11.0392705 10.1107419 11.0392705 2.4009131 0 5.5779835-1.3566083 5.5779835-2.7546397 0-.3417411-.5174382-7.0108688-.5174382-7.0108688s-.1655802-.8905978-.1655802-1.0355789c.018195-.1762136.1061297-.3378043.2441783-.4487072.1380486-.110903.31472-.1618868.4905839-.1415727h3.5392771c.2069753 0 .4139505.1242694.4139505.3003178v12.2716094c-.0102369.1790588-.0936857.3460038-.2307299.461591-.1370443.1155871-.3155963.1696212-.4936835.1494005ZM100.675688 37.2162462c-1.1615738-.3261521-2.3824834-.3881902-3.5716354-.1814858-1.678974.4335492-2.340388 2.2383239-3.05268 3.3877334-1.3838815 2.3492318-2.4217927 3.1659175-4.0702399 2.4198095-.5800091-.262146-1.3838815-1.8350222-2.3607391-4.4968127-.6919408-1.8955175-1.4856376-4.3556572-2.3505635-7.2997588-1.322828-4.4665651-6.5836131-12.9258159-11.1931598-19.4794667-1.3017599 2.4558676-2.0842724 5.1490291-2.2996855 7.9147937-2.2081052 3.9725206-1.8010812 7.3905016-.3256192 11.4436826-.5189556 3.0852571-.8954528 6.1805968 2.1063491 11.2621968h-.050878c-5.9323746-.2016507-18.3160795-8.0660317-24.3502102-10.6068318.852368 2.6987029 2.7725733 4.9396757 5.3218387 6.2108445 1.8621347 5.0412699 8.5983818 11.1815366 13.6963573 11.5949207 1.9638907 3.8011175 6.6243154 7.6929778 11.7528177 5.3941588-9.3717274 4.2145016-12.3328269 6.7855492-13.3300357 8.9028826.2136876-.4637969 9.6261174 2.8231111 9.6261174 2.8231111s1.7298519-6.593981 6.7464226-8.5197461c1.3567466-.524292 2.6151291-1.0485841 3.7751475-1.5728762 1.5987316-.7155765 3.1397602-1.5515146 4.6095467-2.5004698 3.7344451-2.4601397 5.7288627-5.2832509 6.0239551-9.0742858.2950924-3.7910349 1.3126523-5.2933334 3.8260252-7.6224h-.529131Z" fill="#FFF"/></g></g></svg>